<svg width="24" height="24" viewBox="0 0 24 24" fill="none" xmlns="http://www.w3.org/2000/svg">
<path d="M13.0826 9.93565L9.88068 11.0081L10.9166 14.1009L14.1186 13.0284L13.0826 9.93565Z" fill="white"/>
<path d="M22.994 8.69988C20.5189 0.449578 16.9502 -1.4691 8.69988 1.00599C0.449578 3.48109 -1.4691 7.04982 1.00599 15.3001C3.48108 23.5504 7.04982 25.4691 15.3001 22.994C23.5504 20.5189 25.4691 16.9502 22.994 8.69988ZM18.8305 14.053L17.2764 14.571L17.8136 16.1827C18.0246 16.8351 17.6793 17.545 17.0269 17.756C16.8926 17.7944 16.7391 17.8328 16.6048 17.8136C16.106 17.7944 15.6263 17.4682 15.4536 16.9694L14.9164 15.3577L11.7122 16.4321L12.2494 18.0438C12.4605 18.6962 12.1151 19.4061 11.4628 19.6171C11.3285 19.6555 11.175 19.6939 11.0407 19.6747C10.5418 19.6555 10.0621 19.3293 9.88946 18.8305L9.35223 17.2188L7.7981 17.7368C7.6638 17.7752 7.5103 17.8136 7.37599 17.7944C6.87714 17.7752 6.39747 17.449 6.22479 16.9502C6.01373 16.2978 6.3591 15.5879 7.01145 15.3769L8.56557 14.8588L7.52949 11.7698L5.97536 12.2878C5.84105 12.3262 5.68756 12.3646 5.55325 12.3454C5.0544 12.3262 4.57473 12 4.40205 11.5012C4.19099 10.8488 4.53636 10.1389 5.1887 9.92784L6.74283 9.40979L6.2056 7.79811C5.99455 7.14576 6.33991 6.43585 6.99226 6.22479C7.64461 6.01374 8.35452 6.3591 8.56557 7.01145L9.1028 8.62314L12.307 7.54868L11.7698 5.93699C11.5587 5.28464 11.9041 4.57473 12.5564 4.36368C13.2088 4.15262 13.9187 4.49798 14.1297 5.15033L14.667 6.76202L16.2211 6.24398C16.8734 6.03292 17.5833 6.37829 17.7944 7.03064C18.0055 7.68299 17.6601 8.39289 17.0077 8.60395L15.4536 9.12199L16.4897 12.2111L18.0438 11.693C18.6962 11.482 19.4061 11.8273 19.6171 12.4797C19.8282 13.132 19.4828 13.8419 18.8305 14.053Z" fill="white"/>
</svg>
